<svg width="30" height="30" viewBox="0 0 50 50" fill="none" xmlns="http://www.w3.org/2000/svg">
<path d="M11.1942 50H0.825893V16.6183H11.1942V50ZM6.00446 12.0647C2.68973 12.0647 0 9.3192 0 6.00446C0 4.41198 0.632611 2.88472 1.75867 1.75867C2.88472 0.632611 4.41198 0 6.00446 0C7.59695 0 9.12421 0.632611 10.2503 1.75867C11.3763 2.88472 12.0089 4.41198 12.0089 6.00446C12.0089 9.3192 9.3192 12.0647 6.00446 12.0647ZM49.9888 50H39.6429V33.75C39.6429 29.8772 39.5647 24.9107 34.2522 24.9107C28.8616 24.9107 28.0357 29.1183 28.0357 33.471V50H17.6786V16.6183H27.6228V21.1719H27.7679C29.1518 18.5491 32.5335 15.7812 37.5781 15.7812C48.0692 15.7812 50 22.6897 50 31.6629V50H49.9888Z" fill="#F4851D"/>
</svg>
