<svg width="123" height="25" viewBox="0 0 123 25" fill="none" xmlns="http://www.w3.org/2000/svg">
<path d="M12.5 1.61804L14.8309 8.7918L14.9432 9.13729H15.3064H22.8494L16.747 13.5709L16.4531 13.7844L16.5654 14.1299L18.8963 21.3037L12.7939 16.8701L12.5 16.6565L12.2061 16.8701L6.10374 21.3037L8.43464 14.1299L8.54689 13.7844L8.253 13.5709L2.15064 9.13729H9.69357H10.0568L10.1691 8.7918L12.5 1.61804Z" fill="#F4851D" stroke="black"/>
<mask id="path-2-outside-1_459_4" maskUnits="userSpaceOnUse" x="27" y="4" width="95" height="18" fill="black">
<rect fill="white" x="27" y="4" width="95" height="18"/>
<path d="M36.3984 20.293C35.2852 20.293 34.2565 20.1042 33.3125 19.7266C32.375 19.3424 31.5579 18.8086 30.8613 18.125C30.1712 17.4349 29.6341 16.6276 29.25 15.7031C28.8724 14.7786 28.6836 13.7695 28.6836 12.6758C28.6836 11.582 28.8724 10.5729 29.25 9.64844C29.6341 8.71745 30.1712 7.91016 30.8613 7.22656C31.5579 6.54297 32.375 6.01237 33.3125 5.63477C34.2565 5.25065 35.2852 5.05859 36.3984 5.05859C37.5117 5.05859 38.5371 5.25065 39.4746 5.63477C40.4121 6.01237 41.2227 6.54297 41.9062 7.22656C42.5964 7.91016 43.1335 8.71745 43.5176 9.64844C43.9017 10.5729 44.0938 11.582 44.0938 12.6758C44.0938 13.7695 43.9017 14.7786 43.5176 15.7031C43.1335 16.6276 42.5964 17.4349 41.9062 18.125C41.2227 18.8086 40.4121 19.3424 39.4746 19.7266C38.5371 20.1042 37.5117 20.293 36.3984 20.293ZM36.3984 17.666C37.056 17.666 37.6647 17.5391 38.2246 17.2852C38.791 17.0312 39.2826 16.6797 39.6992 16.2305C40.1159 15.7747 40.4382 15.2474 40.666 14.6484C40.9004 14.043 41.0176 13.3854 41.0176 12.6758C41.0176 11.9661 40.9004 11.3086 40.666 10.7031C40.4382 10.0977 40.1159 9.57031 39.6992 9.12109C39.2826 8.66536 38.791 8.3138 38.2246 8.06641C37.6647 7.8125 37.056 7.68555 36.3984 7.68555C35.7344 7.68555 35.1191 7.8125 34.5527 8.06641C33.9928 8.3138 33.5013 8.66536 33.0781 9.12109C32.6615 9.57031 32.3359 10.0977 32.1016 10.7031C31.8737 11.3086 31.7598 11.9661 31.7598 12.6758C31.7598 13.3854 31.8737 14.043 32.1016 14.6484C32.3359 15.2539 32.6615 15.7845 33.0781 16.2402C33.5013 16.6895 33.9928 17.041 34.5527 17.2949C35.1191 17.5423 35.7344 17.666 36.3984 17.666ZM48.9766 20H45.9688V5.35156H48.9766V11.4746H55.3145V5.35156H58.3223V20H55.3145V14.1016H48.9766V20ZM76.3691 20H73.3613V9.64844L69.6992 17.5391H67.375L63.7227 9.67773V20H60.7148V5.35156H64.5332L68.5371 14.1992L72.541 5.35156H76.3691V20ZM78.7617 20V5.35156H88.2148V7.97852H81.7695V11.3086H87.8145V13.9453H81.7695V17.373H88.3125V20H78.7617ZM103.908 20H100.451L93.6055 10V20H90.5977V5.35156H94.0547L100.9 15.3711V5.35156H103.908V20ZM108.498 20H105.344L111.184 5.35156H114.357L120.188 20H117.033L115.832 16.8555H109.699L108.498 20ZM110.686 14.2188H114.855L112.766 8.78906L110.686 14.2188Z"/>
</mask>
<path d="M36.3984 20.293C35.2852 20.293 34.2565 20.1042 33.3125 19.7266C32.375 19.3424 31.5579 18.8086 30.8613 18.125C30.1712 17.4349 29.6341 16.6276 29.25 15.7031C28.8724 14.7786 28.6836 13.7695 28.6836 12.6758C28.6836 11.582 28.8724 10.5729 29.25 9.64844C29.6341 8.71745 30.1712 7.91016 30.8613 7.22656C31.5579 6.54297 32.375 6.01237 33.3125 5.63477C34.2565 5.25065 35.2852 5.05859 36.3984 5.05859C37.5117 5.05859 38.5371 5.25065 39.4746 5.63477C40.4121 6.01237 41.2227 6.54297 41.9062 7.22656C42.5964 7.91016 43.1335 8.71745 43.5176 9.64844C43.9017 10.5729 44.0938 11.582 44.0938 12.6758C44.0938 13.7695 43.9017 14.7786 43.5176 15.7031C43.1335 16.6276 42.5964 17.4349 41.9062 18.125C41.2227 18.8086 40.4121 19.3424 39.4746 19.7266C38.5371 20.1042 37.5117 20.293 36.3984 20.293ZM36.3984 17.666C37.056 17.666 37.6647 17.5391 38.2246 17.2852C38.791 17.0312 39.2826 16.6797 39.6992 16.2305C40.1159 15.7747 40.4382 15.2474 40.666 14.6484C40.9004 14.043 41.0176 13.3854 41.0176 12.6758C41.0176 11.9661 40.9004 11.3086 40.666 10.7031C40.4382 10.0977 40.1159 9.57031 39.6992 9.12109C39.2826 8.66536 38.791 8.3138 38.2246 8.06641C37.6647 7.8125 37.056 7.68555 36.3984 7.68555C35.7344 7.68555 35.1191 7.8125 34.5527 8.06641C33.9928 8.3138 33.5013 8.66536 33.0781 9.12109C32.6615 9.57031 32.3359 10.0977 32.1016 10.7031C31.8737 11.3086 31.7598 11.9661 31.7598 12.6758C31.7598 13.3854 31.8737 14.043 32.1016 14.6484C32.3359 15.2539 32.6615 15.7845 33.0781 16.2402C33.5013 16.6895 33.9928 17.041 34.5527 17.2949C35.1191 17.5423 35.7344 17.666 36.3984 17.666ZM48.9766 20H45.9688V5.35156H48.9766V11.4746H55.3145V5.35156H58.3223V20H55.3145V14.1016H48.9766V20ZM76.3691 20H73.3613V9.64844L69.6992 17.5391H67.375L63.7227 9.67773V20H60.7148V5.35156H64.5332L68.5371 14.1992L72.541 5.35156H76.3691V20ZM78.7617 20V5.35156H88.2148V7.97852H81.7695V11.3086H87.8145V13.9453H81.7695V17.373H88.3125V20H78.7617ZM103.908 20H100.451L93.6055 10V20H90.5977V5.35156H94.0547L100.9 15.3711V5.35156H103.908V20ZM108.498 20H105.344L111.184 5.35156H114.357L120.188 20H117.033L115.832 16.8555H109.699L108.498 20ZM110.686 14.2188H114.855L112.766 8.78906L110.686 14.2188Z" fill="#F4851D"/>
<path d="M33.3125 19.7266L32.9334 20.6519L32.9411 20.655L33.3125 19.7266ZM30.8613 18.125L30.1542 18.8321L30.1609 18.8387L30.8613 18.125ZM29.25 15.7031L28.3242 16.0813L28.3265 16.0868L29.25 15.7031ZM29.25 9.64844L28.3256 9.26704L28.3242 9.27031L29.25 9.64844ZM30.8613 7.22656L30.1609 6.51281L30.1576 6.51611L30.8613 7.22656ZM33.3125 5.63477L33.6861 6.56236L33.6894 6.56102L33.3125 5.63477ZM39.4746 5.63477L39.0955 6.56012L39.101 6.56235L39.4746 5.63477ZM41.9062 7.22656L41.1991 7.93368L41.2025 7.93701L41.9062 7.22656ZM43.5176 9.64844L42.5932 10.0298L42.5941 10.0321L43.5176 9.64844ZM43.5176 15.7031L42.5941 15.3194L43.5176 15.7031ZM41.9062 18.125L41.1991 17.4179L41.9062 18.125ZM39.4746 19.7266L39.8482 20.6542L39.8537 20.6519L39.4746 19.7266ZM38.2246 17.2852L37.8155 16.3726L37.8116 16.3744L38.2246 17.2852ZM39.6992 16.2305L40.4324 16.9105L40.4372 16.9052L39.6992 16.2305ZM40.666 14.6484L39.7334 14.2874L39.7314 14.2929L40.666 14.6484ZM40.666 10.7031L39.7301 11.0554L39.7334 11.0641L40.666 10.7031ZM39.6992 9.12109L38.9612 9.79588L38.966 9.80114L39.6992 9.12109ZM38.2246 8.06641L37.8116 8.97722L37.8243 8.98281L38.2246 8.06641ZM34.5527 8.06641L34.9569 8.98111L34.9618 8.97892L34.5527 8.06641ZM33.0781 9.12109L32.3453 8.44064L32.345 8.44105L33.0781 9.12109ZM32.1016 10.7031L31.169 10.3421L31.1656 10.3509L32.1016 10.7031ZM32.1016 14.6484L31.1656 15.0007L31.169 15.0094L32.1016 14.6484ZM33.0781 16.2402L32.3401 16.915L32.3451 16.9205L32.3502 16.9259L33.0781 16.2402ZM34.5527 17.2949L34.1397 18.2057L34.1525 18.2113L34.5527 17.2949ZM36.3984 19.293C35.4003 19.293 34.499 19.1241 33.6839 18.7981L32.9411 20.655C34.014 21.0842 35.1701 21.293 36.3984 21.293V19.293ZM33.6916 18.8012C32.8693 18.4643 32.1624 18.0007 31.5617 17.4113L30.1609 18.8387C30.9534 19.6164 31.8807 20.2206 32.9334 20.6519L33.6916 18.8012ZM31.5684 17.4179C30.9733 16.8228 30.5087 16.1262 30.1735 15.3194L28.3265 16.0868C28.7596 17.129 29.3691 18.047 30.1542 18.8321L31.5684 17.4179ZM30.1758 15.325C29.8517 14.5315 29.6836 13.6523 29.6836 12.6758H27.6836C27.6836 13.8868 27.8931 15.0258 28.3242 16.0813L30.1758 15.325ZM29.6836 12.6758C29.6836 11.6993 29.8517 10.82 30.1758 10.0266L28.3242 9.27031C27.8931 10.3258 27.6836 11.4648 27.6836 12.6758H29.6836ZM30.1744 10.0298C30.5096 9.21752 30.9732 8.52327 31.5651 7.93701L30.1576 6.51611C29.3692 7.29704 28.7587 8.21738 28.3256 9.26704L30.1744 10.0298ZM31.5617 7.94031C32.1612 7.35206 32.8661 6.89263 33.6861 6.56235L32.9389 4.70718C31.8839 5.13211 30.9547 5.73388 30.1609 6.51282L31.5617 7.94031ZM33.6894 6.56102C34.5031 6.22993 35.4024 6.05859 36.3984 6.05859V4.05859C35.1679 4.05859 34.0099 4.27137 32.9356 4.70851L33.6894 6.56102ZM36.3984 6.05859C37.3946 6.05859 38.2897 6.22996 39.0955 6.56011L39.8537 4.70942C38.7845 4.27135 37.6288 4.05859 36.3984 4.05859V6.05859ZM39.101 6.56235C39.9194 6.89199 40.6151 7.34958 41.1991 7.93367L42.6134 6.51946C41.8303 5.73636 40.9048 5.13275 39.8482 4.70718L39.101 6.56235ZM41.2025 7.93701C41.7943 8.52327 42.258 9.21752 42.5932 10.0298L44.442 9.26704C44.0089 8.21738 43.3984 7.29704 42.61 6.51611L41.2025 7.93701ZM42.5941 10.0321C42.9232 10.8242 43.0938 11.7015 43.0938 12.6758H45.0938C45.0938 11.4626 44.8802 10.3217 44.441 9.26475L42.5941 10.0321ZM43.0938 12.6758C43.0938 13.6501 42.9232 14.5274 42.5941 15.3194L44.441 16.0868C44.8802 15.0299 45.0938 13.889 45.0938 12.6758H43.0938ZM42.5941 15.3194C42.2589 16.1262 41.7942 16.8228 41.1991 17.4179L42.6134 18.8321C43.3985 18.047 44.008 17.129 44.441 16.0868L42.5941 15.3194ZM41.1991 17.4179C40.6138 18.0032 39.9163 18.4649 39.0955 18.8012L39.8537 20.6519C40.908 20.22 41.8315 19.6139 42.6134 18.8321L41.1991 17.4179ZM39.101 18.799C38.2938 19.1241 37.3967 19.293 36.3984 19.293V21.293C37.6267 21.293 38.7805 21.0842 39.8482 20.6541L39.101 18.799ZM36.3984 18.666C37.1884 18.666 37.9391 18.5127 38.6376 18.1959L37.8116 16.3744C37.3903 16.5655 36.9236 16.666 36.3984 16.666V18.666ZM38.6337 18.1977C39.321 17.8896 39.9232 17.4595 40.4324 16.9105L38.966 15.5504C38.6419 15.8999 38.2611 16.1729 37.8156 16.3726L38.6337 18.1977ZM40.4372 16.9052C40.9422 16.3529 41.3297 15.7163 41.6007 15.004L39.7314 14.2929C39.5466 14.7785 39.2896 15.1965 38.9612 15.5557L40.4372 16.9052ZM41.5986 15.0094C41.8815 14.2786 42.0176 13.4974 42.0176 12.6758H40.0176C40.0176 13.2735 39.9193 13.8074 39.7334 14.2874L41.5986 15.0094ZM42.0176 12.6758C42.0176 11.8542 41.8815 11.073 41.5986 10.3421L39.7334 11.0641C39.9193 11.5442 40.0176 12.0781 40.0176 12.6758H42.0176ZM41.6019 10.3509C41.331 9.63092 40.9421 8.9906 40.4324 8.44105L38.966 9.80114C39.2896 10.15 39.5453 10.5644 39.7301 11.0554L41.6019 10.3509ZM40.4372 8.44632C39.9261 7.8872 39.3194 7.45337 38.6249 7.15001L37.8243 8.98281C38.2626 9.17424 38.6391 9.44353 38.9612 9.79586L40.4372 8.44632ZM38.6376 7.15568C37.9391 6.83891 37.1884 6.68555 36.3984 6.68555V8.68555C36.9236 8.68555 37.3903 8.78609 37.8116 8.97714L38.6376 7.15568ZM36.3984 6.68555C35.6034 6.68555 34.8476 6.83836 34.1437 7.1539L34.9618 8.97892C35.3907 8.78664 35.8654 8.68555 36.3984 8.68555V6.68555ZM34.1486 7.15172C33.4623 7.45494 32.8595 7.88695 32.3453 8.44064L33.8109 9.80154C34.1431 9.44378 34.5234 9.17266 34.9569 8.98109L34.1486 7.15172ZM32.345 8.44105C31.8372 8.98849 31.4463 9.62578 31.169 10.3421L33.0341 11.0641C33.2256 10.5695 33.4857 10.1521 33.8113 9.80114L32.345 8.44105ZM31.1656 10.3509C30.8915 11.0794 30.7598 11.8575 30.7598 12.6758H32.7598C32.7598 12.0748 32.8559 11.5378 33.0375 11.0554L31.1656 10.3509ZM30.7598 12.6758C30.7598 13.4941 30.8915 14.2722 31.1656 15.0007L33.0375 14.2962C32.8559 13.8138 32.7598 13.2768 32.7598 12.6758H30.7598ZM31.169 15.0094C31.4458 15.7246 31.8354 16.363 32.3401 16.915L33.8162 15.5655C33.4875 15.206 33.226 14.7832 33.0341 14.2874L31.169 15.0094ZM32.3502 16.9259C32.8624 17.4696 33.4607 17.8977 34.1397 18.2057L34.9657 16.3842C34.5249 16.1843 34.1402 15.9093 33.806 15.5545L32.3502 16.9259ZM34.1525 18.2113C34.8543 18.5179 35.607 18.666 36.3984 18.666V16.666C35.8617 16.666 35.384 16.5668 34.953 16.3785L34.1525 18.2113ZM48.9766 20V21H49.9766V20H48.9766ZM45.9688 20H44.9688V21H45.9688V20ZM45.9688 5.35156V4.35156H44.9688V5.35156H45.9688ZM48.9766 5.35156H49.9766V4.35156H48.9766V5.35156ZM48.9766 11.4746H47.9766V12.4746H48.9766V11.4746ZM55.3145 11.4746V12.4746H56.3145V11.4746H55.3145ZM55.3145 5.35156V4.35156H54.3145V5.35156H55.3145ZM58.3223 5.35156H59.3223V4.35156H58.3223V5.35156ZM58.3223 20V21H59.3223V20H58.3223ZM55.3145 20H54.3145V21H55.3145V20ZM55.3145 14.1016H56.3145V13.1016H55.3145V14.1016ZM48.9766 14.1016V13.1016H47.9766V14.1016H48.9766ZM48.9766 19H45.9688V21H48.9766V19ZM46.9688 20V5.35156H44.9688V20H46.9688ZM45.9688 6.35156H48.9766V4.35156H45.9688V6.35156ZM47.9766 5.35156V11.4746H49.9766V5.35156H47.9766ZM48.9766 12.4746H55.3145V10.4746H48.9766V12.4746ZM56.3145 11.4746V5.35156H54.3145V11.4746H56.3145ZM55.3145 6.35156H58.3223V4.35156H55.3145V6.35156ZM57.3223 5.35156V20H59.3223V5.35156H57.3223ZM58.3223 19H55.3145V21H58.3223V19ZM56.3145 20V14.1016H54.3145V20H56.3145ZM55.3145 13.1016H48.9766V15.1016H55.3145V13.1016ZM47.9766 14.1016V20H49.9766V14.1016H47.9766ZM76.3691 20V21H77.3691V20H76.3691ZM73.3613 20H72.3613V21H73.3613V20ZM73.3613 9.64844H74.3613L72.4543 9.22746L73.3613 9.64844ZM69.6992 17.5391V18.5391H70.3376L70.6063 17.96L69.6992 17.5391ZM67.375 17.5391L66.4681 17.9604L66.7369 18.5391H67.375V17.5391ZM63.7227 9.67773L64.6296 9.25639L62.7227 9.67773H63.7227ZM63.7227 20V21H64.7227V20H63.7227ZM60.7148 20H59.7148V21H60.7148V20ZM60.7148 5.35156V4.35156H59.7148V5.35156H60.7148ZM64.5332 5.35156L65.4443 4.93928L65.1783 4.35156H64.5332V5.35156ZM68.5371 14.1992L67.6261 14.6115L68.5371 16.6247L69.4482 14.6115L68.5371 14.1992ZM72.541 5.35156V4.35156H71.8959L71.63 4.93928L72.541 5.35156ZM76.3691 5.35156H77.3691V4.35156H76.3691V5.35156ZM76.3691 19H73.3613V21H76.3691V19ZM74.3613 20V9.64844H72.3613V20H74.3613ZM72.4543 9.22746L68.7921 17.1181L70.6063 17.96L74.2684 10.0694L72.4543 9.22746ZM69.6992 16.5391H67.375V18.5391H69.6992V16.5391ZM68.2819 17.1177L64.6296 9.25639L62.8158 10.0991L66.4681 17.9604L68.2819 17.1177ZM62.7227 9.67773V20H64.7227V9.67773H62.7227ZM63.7227 19H60.7148V21H63.7227V19ZM61.7148 20V5.35156H59.7148V20H61.7148ZM60.7148 6.35156H64.5332V4.35156H60.7148V6.35156ZM63.6221 5.76385L67.6261 14.6115L69.4482 13.7869L65.4443 4.93928L63.6221 5.76385ZM69.4482 14.6115L73.4521 5.76385L71.63 4.93928L67.6261 13.7869L69.4482 14.6115ZM72.541 6.35156H76.3691V4.35156H72.541V6.35156ZM75.3691 5.35156V20H77.3691V5.35156H75.3691ZM78.7617 20H77.7617V21H78.7617V20ZM78.7617 5.35156V4.35156H77.7617V5.35156H78.7617ZM88.2148 5.35156H89.2148V4.35156H88.2148V5.35156ZM88.2148 7.97852V8.97852H89.2148V7.97852H88.2148ZM81.7695 7.97852V6.97852H80.7695V7.97852H81.7695ZM81.7695 11.3086H80.7695V12.3086H81.7695V11.3086ZM87.8145 11.3086H88.8145V10.3086H87.8145V11.3086ZM87.8145 13.9453V14.9453H88.8145V13.9453H87.8145ZM81.7695 13.9453V12.9453H80.7695V13.9453H81.7695ZM81.7695 17.373H80.7695V18.373H81.7695V17.373ZM88.3125 17.373H89.3125V16.373H88.3125V17.373ZM88.3125 20V21H89.3125V20H88.3125ZM79.7617 20V5.35156H77.7617V20H79.7617ZM78.7617 6.35156H88.2148V4.35156H78.7617V6.35156ZM87.2148 5.35156V7.97852H89.2148V5.35156H87.2148ZM88.2148 6.97852H81.7695V8.97852H88.2148V6.97852ZM80.7695 7.97852V11.3086H82.7695V7.97852H80.7695ZM81.7695 12.3086H87.8145V10.3086H81.7695V12.3086ZM86.8145 11.3086V13.9453H88.8145V11.3086H86.8145ZM87.8145 12.9453H81.7695V14.9453H87.8145V12.9453ZM80.7695 13.9453V17.373H82.7695V13.9453H80.7695ZM81.7695 18.373H88.3125V16.373H81.7695V18.373ZM87.3125 17.373V20H89.3125V17.373H87.3125ZM88.3125 19H78.7617V21H88.3125V19ZM103.908 20V21H104.908V20H103.908ZM100.451 20L99.626 20.5649L99.9239 21H100.451V20ZM93.6055 10L94.4306 9.43511L92.6055 6.76896V10H93.6055ZM93.6055 20V21H94.6055V20H93.6055ZM90.5977 20H89.5977V21H90.5977V20ZM90.5977 5.35156V4.35156H89.5977V5.35156H90.5977ZM94.0547 5.35156L94.8804 4.78743L94.5826 4.35156H94.0547V5.35156ZM100.9 15.3711L100.075 15.9352L101.9 18.6073V15.3711H100.9ZM100.9 5.35156V4.35156H99.9004V5.35156H100.9ZM103.908 5.35156H104.908V4.35156H103.908V5.35156ZM103.908 19H100.451V21H103.908V19ZM101.276 19.4351L94.4306 9.43511L92.7803 10.5649L99.626 20.5649L101.276 19.4351ZM92.6055 10V20H94.6055V10H92.6055ZM93.6055 19H90.5977V21H93.6055V19ZM91.5977 20V5.35156H89.5977V20H91.5977ZM90.5977 6.35156H94.0547V4.35156H90.5977V6.35156ZM93.229 5.9157L100.075 15.9352L101.726 14.807L94.8804 4.78743L93.229 5.9157ZM101.9 15.3711V5.35156H99.9004V15.3711H101.9ZM100.9 6.35156H103.908V4.35156H100.9V6.35156ZM102.908 5.35156V20H104.908V5.35156H102.908ZM108.498 20V21H109.187L109.432 20.3568L108.498 20ZM105.344 20L104.415 19.6297L103.869 21H105.344V20ZM111.184 5.35156V4.35156H110.506L110.255 4.98124L111.184 5.35156ZM114.357 5.35156L115.287 4.98177L115.036 4.35156H114.357V5.35156ZM120.188 20V21H121.662L121.117 19.6302L120.188 20ZM117.033 20L116.099 20.3568L116.345 21H117.033V20ZM115.832 16.8555L116.766 16.4986L116.521 15.8555H115.832V16.8555ZM109.699 16.8555V15.8555H109.011L108.765 16.4986L109.699 16.8555ZM110.686 14.2188L109.752 13.861L109.232 15.2188H110.686V14.2188ZM114.855 14.2188V15.2188H116.312L115.789 13.8595L114.855 14.2188ZM112.766 8.78906L113.699 8.42986L112.763 5.99945L111.832 8.43132L112.766 8.78906ZM108.498 19H105.344V21H108.498V19ZM106.273 20.3703L112.112 5.72189L110.255 4.98124L104.415 19.6297L106.273 20.3703ZM111.184 6.35156H114.357V4.35156H111.184V6.35156ZM113.428 5.72135L119.258 20.3698L121.117 19.6302L115.287 4.98177L113.428 5.72135ZM120.188 19H117.033V21H120.188V19ZM117.967 19.6432L116.766 16.4986L114.898 17.2123L116.099 20.3568L117.967 19.6432ZM115.832 15.8555H109.699V17.8555H115.832V15.8555ZM108.765 16.4986L107.564 19.6432L109.432 20.3568L110.633 17.2123L108.765 16.4986ZM110.686 15.2188H114.855V13.2188H110.686V15.2188ZM115.789 13.8595L113.699 8.42986L111.832 9.14827L113.922 14.578L115.789 13.8595ZM111.832 8.43132L109.752 13.861L111.619 14.5765L113.699 9.1468L111.832 8.43132Z" fill="black" mask="url(#path-2-outside-1_459_4)"/>
</svg>
